<?xml version="1.0" encoding="UTF-8" standalone="no"?>
<!-- Created with Inkscape (http://www.inkscape.org/) -->

<svg
   xmlns:dc="http://purl.org/dc/elements/1.1/"
   xmlns:cc="http://creativecommons.org/ns#"
   xmlns:rdf="http://www.w3.org/1999/02/22-rdf-syntax-ns#"
   xmlns:svg="http://www.w3.org/2000/svg"
   xmlns="http://www.w3.org/2000/svg"
   xmlns:xlink="http://www.w3.org/1999/xlink"
   xmlns:sodipodi="http://sodipodi.sourceforge.net/DTD/sodipodi-0.dtd"
   xmlns:inkscape="http://www.inkscape.org/namespaces/inkscape"
   width="744.09448819"
   height="1052.3622047"
   id="svg2"
   version="1.1"
   inkscape:version="0.48.4 r9939"
   sodipodi:docname="icons.svg">
  <defs
     id="defs4">
    <linearGradient
       id="linearGradient3917">
      <stop
         style="stop-color:#c87137;stop-opacity:1;"
         offset="0"
         id="stop3919" />
      <stop
         id="stop3925"
         offset="0.25"
         style="stop-color:#edd1be;stop-opacity:1;" />
      <stop
         style="stop-color:#c87137;stop-opacity:1;"
         offset="1"
         id="stop3921" />
    </linearGradient>
    <linearGradient
       id="linearGradient3909">
      <stop
         id="stop3911"
         offset="0"
         style="stop-color:#ccae33;stop-opacity:1;" />
      <stop
         style="stop-color:#f7f3e2;stop-opacity:1;"
         offset="0.33333334"
         id="stop3913" />
      <stop
         id="stop3915"
         offset="1"
         style="stop-color:#83712c;stop-opacity:1;" />
    </linearGradient>
    <linearGradient
       id="linearGradient3893">
      <stop
         id="stop3895"
         offset="0"
         style="stop-color:#e60000;stop-opacity:1;" />
      <stop
         style="stop-color:#ffdada;stop-opacity:1;"
         offset="0.33333334"
         id="stop3897" />
      <stop
         id="stop3899"
         offset="1"
         style="stop-color:#e10000;stop-opacity:1;" />
    </linearGradient>
    <linearGradient
       id="linearGradient3875">
      <stop
         style="stop-color:#ffda47;stop-opacity:1;"
         offset="0"
         id="stop3877" />
      <stop
         id="stop3883"
         offset="0.33333334"
         style="stop-color:#fff7d6;stop-opacity:1;" />
      <stop
         style="stop-color:#ffb402;stop-opacity:1;"
         offset="1"
         id="stop3879" />
    </linearGradient>
    <filter
       id="filter2993"
       inkscape:label="Gold paste"
       x="-0.25"
       y="-0.25"
       height="1.5"
       width="1.5"
       inkscape:menu="Materials"
       inkscape:menu-tooltip="Fat pasted cast metal, with golden highlights"
       color-interpolation-filters="sRGB">
      <feGaussianBlur
         id="feGaussianBlur2995"
         in="SourceAlpha"
         stdDeviation="0.01"
         result="result91" />
      <feComposite
         id="feComposite2997"
         in2="result91"
         result="fbSourceGraphic"
         operator="in"
         in="SourceGraphic" />
      <feColorMatrix
         id="feColorMatrix2999"
         values="1"
         in="fbSourceGraphic"
         result="fbSourceGraphicAlpha"
         type="saturate" />
      <feGaussianBlur
         id="feGaussianBlur3001"
         result="result1"
         in="fbSourceGraphic"
         stdDeviation="0.01" />
      <feTurbulence
         id="feTurbulence3003"
         result="result0"
         numOctaves="4"
         baseFrequency="0.04"
         type="fractalNoise"
         seed="20" />
      <feDisplacementMap
         id="feDisplacementMap3005"
         in2="result0"
         result="result2"
         scale="30"
         yChannelSelector="G"
         xChannelSelector="R"
         in="result1" />
      <feColorMatrix
         id="feColorMatrix3007"
         type="saturate"
         values="1"
         result="result3" />
      <feGaussianBlur
         id="feGaussianBlur3009"
         result="result4"
         in="fbSourceGraphic"
         stdDeviation="0.01" />
      <feComposite
         id="feComposite3011"
         in2="result3"
         operator="atop"
         result="fbSourceGraphic"
         in="result4" />
      <feColorMatrix
         id="feColorMatrix3013"
         values="0 0 0 -1 0 0 0 0 -1 0 0 0 0 -1 0 0 0 0 1 0"
         in="fbSourceGraphic"
         result="fbSourceGraphicAlpha" />
      <feGaussianBlur
         id="feGaussianBlur3015"
         result="result0"
         in="fbSourceGraphic"
         stdDeviation="1.5" />
      <feTurbulence
         id="feTurbulence3017"
         baseFrequency="0.02"
         seed="20"
         numOctaves="8"
         result="result1"
         type="fractalNoise" />
      <feComposite
         id="feComposite3019"
         in2="result1"
         result="result2"
         operator="out"
         in="result0" />
      <feSpecularLighting
         id="feSpecularLighting3021"
         lighting-color="rgb(223,188,16)"
         surfaceScale="2.5"
         result="result4"
         specularConstant="2"
         specularExponent="30"
         in="result2">
        <feDistantLight
           id="feDistantLight3023"
           elevation="62"
           azimuth="225" />
      </feSpecularLighting>
      <feComposite
         id="feComposite3025"
         in2="result2"
         in="result4"
         operator="atop"
         result="result92" />
      <feBlend
         id="feBlend3027"
         in2="result92"
         mode="multiply" />
    </filter>
    <filter
       id="filter3952"
       inkscape:label="Fat oil"
       inkscape:menu="Bevels"
       inkscape:menu-tooltip="Fat oil with some adjustable turbulence"
       height="1.4"
       width="1.4"
       y="-0.2"
       x="-0.2"
       color-interpolation-filters="sRGB">
      <feTurbulence
         id="feTurbulence3954"
         numOctaves="3"
         seed="55"
         type="fractalNoise"
         baseFrequency="0.02" />
      <feGaussianBlur
         id="feGaussianBlur3956"
         stdDeviation="1"
         result="result91" />
      <feDisplacementMap
         id="feDisplacementMap3958"
         in2="result91"
         scale="15"
         yChannelSelector="G"
         xChannelSelector="R"
         in="SourceGraphic" />
      <feGaussianBlur
         id="feGaussianBlur3960"
         stdDeviation="1.5"
         result="result92" />
      <feComposite
         id="feComposite3962"
         in2="result92"
         result="fbSourceGraphic"
         k4="-0.3"
         k3="1"
         k2="1"
         operator="arithmetic" />
      <feGaussianBlur
         id="feGaussianBlur3964"
         stdDeviation="3.5"
         in="fbSourceGraphic"
         result="result0" />
      <feSpecularLighting
         id="feSpecularLighting3966"
         in="result0"
         result="result1"
         lighting-color="rgb(255,255,255)"
         surfaceScale="3"
         specularConstant="1"
         specularExponent="55">
        <feDistantLight
           id="feDistantLight3968"
           azimuth="235"
           elevation="65" />
      </feSpecularLighting>
      <feComposite
         id="feComposite3970"
         in2="fbSourceGraphic"
         in="result1"
         result="result2"
         operator="in" />
      <feComposite
         id="feComposite3972"
         in2="result2"
         in="fbSourceGraphic"
         result="result4"
         operator="arithmetic"
         k2="0.4"
         k3="1.7" />
      <feBlend
         id="feBlend3974"
         in2="result2"
         result="fbSourceGraphic"
         mode="normal" />
    </filter>
    <clipPath
       clipPathUnits="userSpaceOnUse"
       id="clipPath3976">
      <path
         style="color:#000000;fill:#ffcc00;fill-opacity:1;fill-rule:nonzero;stroke:none;stroke-width:2;marker:none;visibility:visible;display:inline;overflow:visible;enable-background:accumulate"
         d="m 270,296.36218 c -3.324,0 -6,2.676 -6,6 l 0,20 c 0,3.324 2.676,6 6,6 l 20,0 c 3.324,0 6,-2.676 6,-6 l 0,-20 c 0,-3.324 -2.676,-6 -6,-6 l -20,0 z m 6.6875,3.5 8.21875,0 -1.15625,4.4375 -8.1875,0 1.125,-4.4375 z m -1.34375,5.34375 8.1875,0 -4.09375,16.0625 c -0.91089,3.12507 -1.82984,3.59375 -4.5625,3.59375 l -4.5625,0 -1.8125,-0.0312 0.90625,-3.5625 0.90625,0 c 0.45544,-0.006 0.91955,0.005 1.375,-1.78125 l 3.65625,-14.28125 z m 10.25,0.21875 5.90625,0 -1.375,5.375 -5.90625,0 1.375,-5.375 z m -2.0625,8.71875 5.90625,0 -1.34375,5.34375 -5.9375,0 1.375,-5.34375 z"
         id="path3978"
         inkscape:connector-curvature="0" />
    </clipPath>
    <filter
       id="filter4011"
       inkscape:menu-tooltip="Pressed metal with a rolled edge"
       inkscape:menu="Bevels"
       inkscape:label="Pressed steel"
       color-interpolation-filters="sRGB">
      <feGaussianBlur
         id="feGaussianBlur4013"
         result="result1"
         stdDeviation="3" />
      <feBlend
         id="feBlend4015"
         in2="result1"
         result="result5"
         mode="multiply"
         in="result1" />
      <feGaussianBlur
         id="feGaussianBlur4017"
         in="result5"
         result="result6"
         stdDeviation="1" />
      <feComposite
         id="feComposite4019"
         in2="result5"
         result="result8"
         in="result6"
         operator="xor" />
      <feComposite
         id="feComposite4021"
         in2="result8"
         in="result6"
         result="fbSourceGraphic"
         operator="xor" />
      <feSpecularLighting
         id="feSpecularLighting4023"
         in="fbSourceGraphic"
         result="result1"
         lighting-color="rgb(255,255,255)"
         surfaceScale="2"
         specularConstant="2.2"
         specularExponent="55">
        <fePointLight
           id="fePointLight4025"
           x="-5000"
           y="-10000"
           z="20000" />
      </feSpecularLighting>
      <feComposite
         id="feComposite4027"
         in2="fbSourceGraphic"
         in="result1"
         result="result2"
         operator="in" />
      <feComposite
         id="feComposite4029"
         in2="result2"
         in="fbSourceGraphic"
         result="result4"
         operator="arithmetic"
         k2="2"
         k3="1" />
      <feComposite
         id="feComposite4031"
         in2="result4"
         in="result9"
         operator="in"
         result="result91" />
      <feBlend
         id="feBlend4033"
         in2="result91"
         mode="darken" />
    </filter>
    <clipPath
       clipPathUnits="userSpaceOnUse"
       id="clipPath4035">
      <path
         style="color:#000000;fill:#ffcc00;fill-opacity:1;fill-rule:nonzero;stroke:none;stroke-width:2;marker:none;visibility:visible;display:inline;overflow:visible;enable-background:accumulate"
         d="m 226,297.375 c -3.324,0 -6,2.676 -6,6 l 0,20 c 0,3.324 2.676,6 6,6 l 20,0 c 3.324,0 6,-2.676 6,-6 l 0,-20 c 0,-3.324 -2.676,-6 -6,-6 l -20,0 z m 6.6875,3.5 8.21875,0 -1.15625,4.4375 -8.1875,0 1.125,-4.4375 z m -1.34375,5.34375 8.1875,0 -4.09375,16.0625 c -0.91089,3.12507 -1.82984,3.59375 -4.5625,3.59375 l -4.5625,0 -1.8125,-0.0312 0.90625,-3.5625 0.90625,0 c 0.45544,-0.006 0.91955,0.005 1.375,-1.78125 l 3.65625,-14.28125 z m 10.25,0.21875 5.90625,0 -1.375,5.375 -5.90625,0 1.375,-5.375 z m -2.0625,8.71875 5.90625,0 -1.34375,5.34375 -5.9375,0 1.375,-5.34375 z"
         id="path4037"
         inkscape:connector-curvature="0" />
    </clipPath>
    <filter
       id="filter4236"
       inkscape:menu-tooltip="Glowing metal texture"
       inkscape:menu="Bevels"
       inkscape:label="Glowing metal"
       color-interpolation-filters="sRGB">
      <feGaussianBlur
         id="feGaussianBlur4238"
         stdDeviation="3"
         result="result10" />
      <feBlend
         id="feBlend4240"
         in2="SourceGraphic"
         result="result5"
         mode="multiply"
         in="result10" />
      <feComposite
         id="feComposite4242"
         in2="SourceGraphic"
         in="result5"
         result="fbSourceGraphic"
         operator="over" />
      <feGaussianBlur
         id="feGaussianBlur4244"
         result="result9"
         stdDeviation="5" />
      <feSpecularLighting
         id="feSpecularLighting4246"
         in="result9"
         result="result1"
         lighting-color="rgb(255,255,255)"
         surfaceScale="1"
         specularConstant="2.2"
         specularExponent="45">
        <fePointLight
           id="fePointLight4248"
           x="-5000"
           y="-10000"
           z="20000" />
      </feSpecularLighting>
      <feComposite
         id="feComposite4250"
         in2="fbSourceGraphic"
         in="result1"
         result="result2"
         operator="in" />
      <feComposite
         id="feComposite4252"
         in2="fbSourceGraphic"
         in="result2"
         result="result4"
         operator="arithmetic"
         k2="2"
         k3="0.8" />
      <feBlend
         id="feBlend4254"
         in2="result4"
         in="result4"
         mode="multiply" />
    </filter>
    <clipPath
       clipPathUnits="userSpaceOnUse"
       id="clipPath4256">
      <path
         style="color:#000000;fill:#ffcc00;fill-opacity:1;fill-rule:nonzero;stroke:none;stroke-width:2;marker:none;visibility:visible;display:inline;overflow:visible;enable-background:accumulate"
         d="m 222,297.375 c -3.324,0 -6,2.676 -6,6 l 0,20 c 0,3.324 2.676,6 6,6 l 20,0 c 3.324,0 6,-2.676 6,-6 l 0,-20 c 0,-3.324 -2.676,-6 -6,-6 l -20,0 z m 6.6875,3.5 8.21875,0 -1.15625,4.4375 -8.1875,0 1.125,-4.4375 z m -1.34375,5.34375 8.1875,0 -4.09375,16.0625 c -0.91089,3.12507 -1.82984,3.59375 -4.5625,3.59375 l -4.5625,0 -1.8125,-0.0312 0.90625,-3.5625 0.90625,0 c 0.45544,-0.006 0.91955,0.005 1.375,-1.78125 l 3.65625,-14.28125 z m 10.25,0.21875 5.90625,0 -1.375,5.375 -5.90625,0 1.375,-5.375 z m -2.0625,8.71875 5.90625,0 -1.34375,5.34375 -5.9375,0 1.375,-5.34375 z"
         id="path4258"
         inkscape:connector-curvature="0" />
    </clipPath>
    <filter
       id="filter4351"
       inkscape:menu-tooltip="Glowing metal texture"
       inkscape:menu="Bevels"
       inkscape:label="Glowing metal"
       color-interpolation-filters="sRGB">
      <feGaussianBlur
         id="feGaussianBlur4353"
         stdDeviation="3"
         result="result10" />
      <feBlend
         id="feBlend4355"
         in2="SourceGraphic"
         result="result5"
         mode="multiply"
         in="result10" />
      <feComposite
         id="feComposite4357"
         in2="SourceGraphic"
         in="result5"
         result="fbSourceGraphic"
         operator="over" />
      <feGaussianBlur
         id="feGaussianBlur4359"
         result="result9"
         stdDeviation="5" />
      <feSpecularLighting
         id="feSpecularLighting4361"
         in="result9"
         result="result1"
         lighting-color="rgb(255,255,255)"
         surfaceScale="1"
         specularConstant="2.2"
         specularExponent="45">
        <fePointLight
           id="fePointLight4363"
           x="-5000"
           y="-10000"
           z="20000" />
      </feSpecularLighting>
      <feComposite
         id="feComposite4365"
         in2="fbSourceGraphic"
         in="result1"
         result="result2"
         operator="in" />
      <feComposite
         id="feComposite4367"
         in2="fbSourceGraphic"
         in="result2"
         result="result4"
         operator="arithmetic"
         k2="2"
         k3="0.8" />
      <feBlend
         id="feBlend4369"
         in2="result4"
         in="result4"
         mode="multiply" />
    </filter>
    <clipPath
       clipPathUnits="userSpaceOnUse"
       id="clipPath4371">
      <path
         style="color:#000000;fill:#ffcc00;fill-opacity:1;fill-rule:nonzero;stroke:none;stroke-width:2;marker:none;visibility:visible;display:inline;overflow:visible;enable-background:accumulate"
         d="m 214,297.375 c -3.324,0 -6,2.676 -6,6 l 0,20 c 0,3.324 2.676,6 6,6 l 20,0 c 3.324,0 6,-2.676 6,-6 l 0,-20 c 0,-3.324 -2.676,-6 -6,-6 l -20,0 z m 6.6875,3.5 8.21875,0 -1.15625,4.4375 -8.1875,0 1.125,-4.4375 z m -1.34375,5.34375 8.1875,0 -4.09375,16.0625 c -0.91089,3.12507 -1.82984,3.59375 -4.5625,3.59375 l -4.5625,0 -1.8125,-0.0312 0.90625,-3.5625 0.90625,0 c 0.45544,-0.006 0.91955,0.005 1.375,-1.78125 l 3.65625,-14.28125 z m 10.25,0.21875 5.90625,0 -1.375,5.375 -5.90625,0 1.375,-5.375 z m -2.0625,8.71875 5.90625,0 -1.34375,5.34375 -5.9375,0 1.375,-5.34375 z"
         id="path4373"
         inkscape:connector-curvature="0" />
    </clipPath>
    <filter
       id="filter4661"
       inkscape:label="Relief print"
       inkscape:menu="Bumps"
       inkscape:menu-tooltip="Bumps effect with a bevel, color flood and complex lighting"
       color-interpolation-filters="sRGB">
      <feGaussianBlur
         id="feGaussianBlur4663"
         stdDeviation="5"
         result="result8" />
      <feComposite
         id="feComposite4665"
         in2="result8"
         result="result6"
         in="SourceGraphic"
         operator="in" />
      <feComposite
         id="feComposite4667"
         in2="result6"
         operator="in"
         result="result11" />
      <feFlood
         id="feFlood4669"
         result="result10"
         in="result11"
         flood-opacity="1"
         flood-color="rgb(255,255,255)" />
      <feBlend
         id="feBlend4671"
         in2="result11"
         mode="multiply"
         in="result10"
         result="result12" />
      <feComposite
         id="feComposite4673"
         in2="SourceGraphic"
         result="fbSourceGraphic"
         operator="in"
         in="result12" />
      <feFlood
         id="feFlood4675"
         result="result6"
         flood-color="rgb(75,101,154)"
         in="fbSourceGraphic" />
      <feComposite
         id="feComposite4677"
         in2="result6"
         k3="0.3"
         k2="0.3"
         k1="0.5"
         operator="arithmetic"
         result="result2"
         in="fbSourceGraphic" />
      <feColorMatrix
         id="feColorMatrix4679"
         result="fbSourceGraphicAlpha"
         in="result2"
         values="1 0 0 -1 0 1 0 1 -1 0 1 0 0 -1 0 -0.8 -1 0 3.9 -2.7 "
         type="matrix" />
      <feGaussianBlur
         id="feGaussianBlur4681"
         result="result0"
         in="fbSourceGraphicAlpha"
         stdDeviation="0.5" />
      <feDiffuseLighting
         id="feDiffuseLighting4683"
         lighting-color="rgb(255,255,255)"
         diffuseConstant="0.7"
         surfaceScale="50"
         result="result13"
         in="result0">
        <feDistantLight
           id="feDistantLight4685"
           elevation="20"
           azimuth="225" />
      </feDiffuseLighting>
      <feSpecularLighting
         id="feSpecularLighting4687"
         specularExponent="20"
         specularConstant="0.7"
         surfaceScale="10"
         lighting-color="rgb(255,255,255)"
         result="result1"
         in="result0">
        <feDistantLight
           id="feDistantLight4689"
           elevation="45"
           azimuth="225" />
      </feSpecularLighting>
      <feBlend
         id="feBlend4691"
         in2="SourceGraphic"
         mode="screen"
         result="result5"
         in="result13" />
      <feComposite
         id="feComposite4693"
         in2="result5"
         in="result1"
         k3="1"
         k2="1"
         operator="arithmetic"
         result="result9" />
      <feComposite
         id="feComposite4695"
         in2="SourceGraphic"
         operator="in" />
    </filter>
    <clipPath
       clipPathUnits="userSpaceOnUse"
       id="clipPath4697">
      <path
         style="color:#000000;fill:#ffcc00;fill-opacity:1;fill-rule:nonzero;stroke:none;stroke-width:2;marker:none;visibility:visible;display:inline;overflow:visible;enable-background:accumulate"
         d="m 210,300.375 c -3.324,0 -6,2.676 -6,6 l 0,20 c 0,3.324 2.676,6 6,6 l 20,0 c 3.324,0 6,-2.676 6,-6 l 0,-20 c 0,-3.324 -2.676,-6 -6,-6 l -20,0 z m 6.6875,3.5 8.21875,0 -1.15625,4.4375 -8.1875,0 1.125,-4.4375 z m -1.34375,5.34375 8.1875,0 -4.09375,16.0625 c -0.91089,3.12507 -1.82984,3.59375 -4.5625,3.59375 l -4.5625,0 -1.8125,-0.0312 0.90625,-3.5625 0.90625,0 c 0.45544,-0.006 0.91955,0.005 1.375,-1.78125 l 3.65625,-14.28125 z m 10.25,0.21875 5.90625,0 -1.375,5.375 -5.90625,0 1.375,-5.375 z m -2.0625,8.71875 5.90625,0 -1.34375,5.34375 -5.9375,0 1.375,-5.34375 z"
         id="path4699"
         inkscape:connector-curvature="0" />
    </clipPath>
    <clipPath
       clipPathUnits="userSpaceOnUse"
       id="clipPath4709">
      <rect
         ry="6"
         rx="6"
         y="296.36218"
         x="264"
         height="32"
         width="32"
         id="rect4711"
         style="opacity:0.25;color:#000000;fill:#800000;fill-opacity:1;fill-rule:nonzero;stroke:none;stroke-width:2;marker:none;visibility:visible;display:inline;overflow:visible;enable-background:accumulate" />
    </clipPath>
    <linearGradient
       inkscape:collect="always"
       xlink:href="#linearGradient3875"
       id="linearGradient3881"
       x1="360"
       y1="312.36218"
       x2="366"
       y2="318.36218"
       gradientUnits="userSpaceOnUse" />
    <linearGradient
       inkscape:collect="always"
       xlink:href="#linearGradient3893"
       id="linearGradient3891"
       x1="368"
       y1="304.36218"
       x2="374"
       y2="310.36218"
       gradientUnits="userSpaceOnUse" />
    <linearGradient
       inkscape:collect="always"
       xlink:href="#linearGradient3917"
       id="linearGradient3923"
       x1="353"
       y1="321.36218"
       x2="358"
       y2="325.36218"
       gradientUnits="userSpaceOnUse" />
    <linearGradient
       inkscape:collect="always"
       xlink:href="#linearGradient3893"
       id="linearGradient3940"
       gradientUnits="userSpaceOnUse"
       x1="368"
       y1="304.36218"
       x2="374"
       y2="310.36218" />
    <linearGradient
       inkscape:collect="always"
       xlink:href="#linearGradient3875"
       id="linearGradient3942"
       gradientUnits="userSpaceOnUse"
       x1="360"
       y1="312.36218"
       x2="366"
       y2="318.36218" />
    <linearGradient
       inkscape:collect="always"
       xlink:href="#linearGradient3917"
       id="linearGradient3944"
       gradientUnits="userSpaceOnUse"
       x1="353"
       y1="321.36218"
       x2="358"
       y2="325.36218" />
    <linearGradient
       inkscape:collect="always"
       xlink:href="#linearGradient3917"
       id="linearGradient3948"
       gradientUnits="userSpaceOnUse"
       x1="353"
       y1="321.36218"
       x2="358"
       y2="325.36218" />
    <linearGradient
       inkscape:collect="always"
       xlink:href="#linearGradient3875"
       id="linearGradient3951"
       gradientUnits="userSpaceOnUse"
       x1="360"
       y1="312.36218"
       x2="366"
       y2="318.36218" />
    <linearGradient
       inkscape:collect="always"
       xlink:href="#linearGradient3893"
       id="linearGradient3954"
       gradientUnits="userSpaceOnUse"
       x1="368"
       y1="304.36218"
       x2="374"
       y2="310.36218" />
    <filter
       inkscape:collect="always"
       id="filter3904">
      <feGaussianBlur
         inkscape:collect="always"
         stdDeviation="0.87665039"
         id="feGaussianBlur3906" />
    </filter>
  </defs>
  <sodipodi:namedview
     id="base"
     pagecolor="#ffffff"
     bordercolor="#666666"
     borderopacity="1.0"
     inkscape:pageopacity="0.0"
     inkscape:pageshadow="2"
     inkscape:zoom="2.0000001"
     inkscape:cx="333.89498"
     inkscape:cy="653.58855"
     inkscape:document-units="px"
     inkscape:current-layer="layer1"
     showgrid="true"
     inkscape:snap-bbox="true"
     inkscape:window-width="1920"
     inkscape:window-height="1018"
     inkscape:window-x="-8"
     inkscape:window-y="-8"
     inkscape:window-maximized="1"
     inkscape:snap-nodes="true"
     inkscape:snap-global="true"
     inkscape:bbox-nodes="false">
    <inkscape:grid
       type="xygrid"
       id="grid2985"
       empspacing="4"
       visible="true"
       enabled="true"
       snapvisiblegridlinesonly="true" />
  </sodipodi:namedview>
  <metadata
     id="metadata7">
    <rdf:RDF>
      <cc:Work
         rdf:about="">
        <dc:format>image/svg+xml</dc:format>
        <dc:type
           rdf:resource="http://purl.org/dc/dcmitype/StillImage" />
        <dc:title></dc:title>
      </cc:Work>
    </rdf:RDF>
  </metadata>
  <g
     inkscape:label="Layer 1"
     inkscape:groupmode="layer"
     id="layer1">
    <path
       style="fill:#ff0000;stroke:#000000;stroke-width:1px;stroke-linecap:butt;stroke-linejoin:miter;stroke-opacity:1"
       d="m 168,220.375 -2.5,10 18,0 2.5,-10 z m -3,12 -8,32 c -1,4 -2,3.97436 -3,3.98718 l -2,0 -2,8 4,0.0128 10,0 c 6,0 8,-1 10,-8 l 9,-36 z m 22.5,0.5 -3,12 13,0 3,-12 z m -4.5,19.5 -3,12 13,0 3,-12 z"
       id="path3858"
       inkscape:connector-curvature="0"
       sodipodi:nodetypes="ccccccsccccsccccccccccccc" />
    <path
       style="fill:none;stroke:#000000;stroke-width:1px;stroke-linecap:butt;stroke-linejoin:miter;stroke-opacity:1"
       d="m 168,220.36218 18,0"
       id="path3884"
       inkscape:connector-curvature="0" />
    <g
       id="g4713"
       inkscape:export-filename="C:\home\dev\java\w.plugins\eclipse-jetty-code\src\site\resources\images\logo.png"
       inkscape:export-xdpi="360"
       inkscape:export-ydpi="360">
      <path
         transform="translate(60,-4.0128174)"
         inkscape:connector-curvature="0"
         clip-path="url(#clipPath4697)"
         style="color:#000000;fill:#ffcc00;fill-opacity:1;fill-rule:nonzero;stroke:none;stroke-width:2;marker:none;visibility:visible;display:inline;overflow:visible;filter:url(#filter4661);enable-background:accumulate"
         d="m 210,300.375 c -3.324,0 -6,2.676 -6,6 l 0,20 c 0,3.324 2.676,6 6,6 l 20,0 c 3.324,0 6,-2.676 6,-6 l 0,-20 c 0,-3.324 -2.676,-6 -6,-6 l -20,0 z m 6.6875,3.5 8.21875,0 -1.15625,4.4375 -8.1875,0 1.125,-4.4375 z m -1.34375,5.34375 8.1875,0 -4.09375,16.0625 c -0.91089,3.12507 -1.82984,3.59375 -4.5625,3.59375 l -4.5625,0 -1.8125,-0.0312 0.90625,-3.5625 0.90625,0 c 0.45544,-0.006 0.91955,0.005 1.375,-1.78125 l 3.65625,-14.28125 z m 10.25,0.21875 5.90625,0 -1.375,5.375 -5.90625,0 1.375,-5.375 z m -2.0625,8.71875 5.90625,0 -1.34375,5.34375 -5.9375,0 1.375,-5.34375 z"
         id="path4659" />
      <path
         style="fill:#ff0000;stroke:#000000;stroke-width:0.99999994px;stroke-linecap:butt;stroke-linejoin:miter;stroke-opacity:1"
         d="m 276.69802,299.86218 -1.13862,4.46438 8.19803,0 1.1386,-4.46438 z m -1.36634,5.35725 -3.64357,14.28601 c -0.45545,1.78576 -0.91089,1.77431 -1.36633,1.78003 l -0.91089,0 -0.91089,3.5715 1.82178,0.005 4.55446,0 c 2.73266,0 3.64356,-0.44643 4.55445,-3.5715 l 4.09902,-16.07176 z m 10.24752,0.22323 -1.36632,5.35725 5.92079,0 1.36633,-5.35725 z m -2.04949,8.70553 -1.36634,5.35725 5.92079,0 1.36634,-5.35725 z"
         id="path3895"
         inkscape:connector-curvature="0"
         sodipodi:nodetypes="ccccccsccccsccccccccccccc" />
      <rect
         clip-path="url(#clipPath4709)"
         ry="6"
         rx="6"
         y="296.36218"
         x="264"
         height="32"
         width="32"
         id="rect4705"
         style="opacity:0.5;color:#000000;fill:none;fill-opacity:1;fill-rule:nonzero;stroke:#000000;stroke-width:2;marker:none;visibility:visible;display:inline;overflow:visible;enable-background:accumulate" />
    </g>
    <g
       id="g3961"
       inkscape:export-filename="C:\home\dev\java\w.plugins\eclipse-jetty-code\plugins\eclipse-jetty-launcher\icons\jetty-advanced.png"
       inkscape:export-xdpi="45"
       inkscape:export-ydpi="45">
      <rect
         ry="0"
         rx="0"
         y="296.36218"
         x="344"
         height="32"
         width="32"
         id="rect3097"
         style="color:#000000;fill:#f2f2f2;fill-opacity:0;stroke:none;stroke-width:2;marker:none;visibility:visible;display:inline;overflow:visible;enable-background:accumulate" />
      <g
         transform="matrix(0.75,0,0,0.75,146,74.090546)"
         id="g3089"
         inkscape:export-filename="C:\home\dev\java\w.plugins\eclipse-jetty-code\src\site\resources\images\logo.png"
         inkscape:export-xdpi="360"
         inkscape:export-ydpi="360">
        <path
           transform="translate(60,-4.0128174)"
           inkscape:connector-curvature="0"
           clip-path="url(#clipPath4697)"
           style="color:#000000;fill:#ffcc00;fill-opacity:1;fill-rule:nonzero;stroke:none;stroke-width:2;marker:none;visibility:visible;display:inline;overflow:visible;filter:url(#filter4661);enable-background:accumulate"
           d="m 210,300.375 c -3.324,0 -6,2.676 -6,6 l 0,20 c 0,3.324 2.676,6 6,6 l 20,0 c 3.324,0 6,-2.676 6,-6 l 0,-20 c 0,-3.324 -2.676,-6 -6,-6 l -20,0 z m 6.6875,3.5 8.21875,0 -1.15625,4.4375 -8.1875,0 1.125,-4.4375 z m -1.34375,5.34375 8.1875,0 -4.09375,16.0625 c -0.91089,3.12507 -1.82984,3.59375 -4.5625,3.59375 l -4.5625,0 -1.8125,-0.0312 0.90625,-3.5625 0.90625,0 c 0.45544,-0.006 0.91955,0.005 1.375,-1.78125 l 3.65625,-14.28125 z m 10.25,0.21875 5.90625,0 -1.375,5.375 -5.90625,0 1.375,-5.375 z m -2.0625,8.71875 5.90625,0 -1.34375,5.34375 -5.9375,0 1.375,-5.34375 z"
           id="path3091" />
        <path
           style="fill:#ff0000;stroke:#000000;stroke-width:1.33333325px;stroke-linecap:butt;stroke-linejoin:miter;stroke-opacity:1"
           d="m 276.69802,299.86218 -1.13862,4.46438 8.19803,0 1.1386,-4.46438 z m -1.36634,5.35725 -3.64357,14.28601 c -0.45545,1.78576 -0.91089,1.77431 -1.36633,1.78003 l -0.91089,0 -0.91089,3.5715 1.82178,0.005 4.55446,0 c 2.73266,0 3.64356,-0.44643 4.55445,-3.5715 l 4.09902,-16.07176 z m 10.24752,0.22323 -1.36632,5.35725 5.92079,0 1.36633,-5.35725 z m -2.04949,8.70553 -1.36634,5.35725 5.92079,0 1.36634,-5.35725 z"
           id="path3093"
           inkscape:connector-curvature="0"
           sodipodi:nodetypes="ccccccsccccsccccccccccccc" />
        <rect
           clip-path="url(#clipPath4709)"
           ry="8"
           rx="8"
           y="296.36218"
           x="264"
           height="32"
           width="32"
           id="rect3095"
           style="opacity:0.5;color:#000000;fill:none;stroke:#000000;stroke-width:2.66666675;marker:none;visibility:visible;display:inline;overflow:visible;enable-background:accumulate" />
      </g>
      <path
         style="fill:url(#linearGradient3954);fill-opacity:1;stroke:#782121;stroke-width:1px;stroke-linecap:round;stroke-linejoin:round;stroke-opacity:1"
         d="m 366,306.36218 3,-3 c 1,-1 7,5 6,6 l -3,3 c 1,-1 -5,-7 -6,-6 z"
         id="path3871"
         inkscape:connector-curvature="0"
         sodipodi:nodetypes="ccccc" />
      <path
         sodipodi:nodetypes="ccccc"
         inkscape:connector-curvature="0"
         id="path3869"
         d="m 354,318.36218 12,-12 c 1,-1 7,5 6,6 l -12,12 c 1,-1 -5,-7 -6,-6 z"
         style="fill:url(#linearGradient3951);fill-opacity:1;stroke:#554400;stroke-width:1px;stroke-linecap:round;stroke-linejoin:round;stroke-opacity:1" />
      <path
         sodipodi:nodetypes="cccc"
         inkscape:connector-curvature="0"
         id="path3867"
         d="m 351,327.36218 3,-9 c 1,-1 7,5 6,6 z"
         style="fill:url(#linearGradient3948);fill-opacity:1;stroke:#784421;stroke-width:1px;stroke-linecap:round;stroke-linejoin:round;stroke-opacity:1" />
      <path
         style="fill:#000000;stroke:#000000;stroke-width:1px;stroke-linecap:round;stroke-linejoin:round;stroke-opacity:1"
         d="m 351,327.36218 1,-3 c 1,0 2,1 2,2 z"
         id="path3873"
         inkscape:connector-curvature="0"
         sodipodi:nodetypes="cccc" />
    </g>
    <g
       inkscape:export-ydpi="135"
       inkscape:export-xdpi="135"
       inkscape:export-filename="C:\home\dev\java\w.plugins\eclipse-jetty-code\plugins\eclipse-jetty-launcher\icons\jetty-plugin-logo.png"
       id="g3116"
       transform="translate(0,60)">
      <path
         id="path3118"
         d="m 210,300.375 c -3.324,0 -6,2.676 -6,6 l 0,20 c 0,3.324 2.676,6 6,6 l 20,0 c 3.324,0 6,-2.676 6,-6 l 0,-20 c 0,-3.324 -2.676,-6 -6,-6 l -20,0 z m 6.6875,3.5 8.21875,0 -1.15625,4.4375 -8.1875,0 1.125,-4.4375 z m -1.34375,5.34375 8.1875,0 -4.09375,16.0625 c -0.91089,3.12507 -1.82984,3.59375 -4.5625,3.59375 l -4.5625,0 -1.8125,-0.0312 0.90625,-3.5625 0.90625,0 c 0.45544,-0.006 0.91955,0.005 1.375,-1.78125 l 3.65625,-14.28125 z m 10.25,0.21875 5.90625,0 -1.375,5.375 -5.90625,0 1.375,-5.375 z m -2.0625,8.71875 5.90625,0 -1.34375,5.34375 -5.9375,0 1.375,-5.34375 z"
         style="color:#000000;fill:#ffcc00;fill-opacity:1;fill-rule:nonzero;stroke:none;stroke-width:2;marker:none;visibility:visible;display:inline;overflow:visible;filter:url(#filter4661);enable-background:accumulate"
         clip-path="url(#clipPath4697)"
         inkscape:connector-curvature="0"
         transform="translate(60,-4.0128174)" />
      <path
         sodipodi:nodetypes="ccccccsccccsccccccccccccc"
         inkscape:connector-curvature="0"
         id="path3120"
         d="m 276.69802,299.86218 -1.13862,4.46438 8.19803,0 1.1386,-4.46438 z m -1.36634,5.35725 -3.64357,14.28601 c -0.45545,1.78576 -0.91089,1.77431 -1.36633,1.78003 l -0.91089,0 -0.91089,3.5715 1.82178,0.005 4.55446,0 c 2.73266,0 3.64356,-0.44643 4.55445,-3.5715 l 4.09902,-16.07176 z m 10.24752,0.22323 -1.36632,5.35725 5.92079,0 1.36633,-5.35725 z m -2.04949,8.70553 -1.36634,5.35725 5.92079,0 1.36634,-5.35725 z"
         style="fill:#ff0000;stroke:#000000;stroke-width:0.99999994px;stroke-linecap:butt;stroke-linejoin:miter;stroke-opacity:1" />
      <rect
         style="opacity:0.5;color:#000000;fill:none;stroke:#000000;stroke-width:2;marker:none;visibility:visible;display:inline;overflow:visible;enable-background:accumulate"
         id="rect3122"
         width="32"
         height="32"
         x="264"
         y="296.36218"
         rx="6"
         ry="6"
         clip-path="url(#clipPath4709)" />
    </g>
    <g
       id="g3910">
      <rect
         inkscape:export-ydpi="180"
         inkscape:export-xdpi="180"
         inkscape:export-filename="C:\home\dev\java\w.plugins\eclipse-jetty-code\src\site\resources\images\title.png"
         ry="0"
         rx="0"
         y="416.36218"
         x="256"
         height="40"
         width="384"
         id="rect3908"
         style="color:#000000;fill:#e6e6e6;fill-opacity:0;fill-rule:nonzero;stroke:none;stroke-width:2;marker:none;visibility:visible;display:inline;overflow:visible;enable-background:accumulate" />
      <text
         inkscape:export-ydpi="180"
         inkscape:export-xdpi="180"
         inkscape:export-filename="C:\home\dev\java\w.plugins\eclipse-jetty-code\src\site\resources\images\title.png"
         xml:space="preserve"
         style="font-size:40px;font-style:normal;font-variant:normal;font-weight:normal;font-stretch:normal;line-height:125%;letter-spacing:0px;word-spacing:0px;fill:#000000;fill-opacity:0.25098039;stroke:none;filter:url(#filter3904);font-family:Deutsche Zierschrift;-inkscape-font-specification:Deutsche Zierschrift"
         x="301.77344"
         y="446.59656"
         id="text3132"
         sodipodi:linespacing="125%"><tspan
           sodipodi:role="line"
           id="tspan3134"
           x="301.77344"
           y="446.59656"
           style="font-size:24px;font-style:normal;font-variant:normal;font-weight:bold;font-stretch:normal;fill:#000000;fill-opacity:0.25098039;font-family:Verdana;-inkscape-font-specification:Verdana Bold">Eclipse Jetty Integration</tspan></text>
      <g
         inkscape:export-ydpi="180"
         inkscape:export-xdpi="180"
         inkscape:export-filename="C:\home\dev\java\w.plugins\eclipse-jetty-code\src\site\resources\images\title.png"
         id="g3120"
         transform="translate(0,124)">
        <path
           id="path3122"
           d="m 210,300.375 c -3.324,0 -6,2.676 -6,6 l 0,20 c 0,3.324 2.676,6 6,6 l 20,0 c 3.324,0 6,-2.676 6,-6 l 0,-20 c 0,-3.324 -2.676,-6 -6,-6 l -20,0 z m 6.6875,3.5 8.21875,0 -1.15625,4.4375 -8.1875,0 1.125,-4.4375 z m -1.34375,5.34375 8.1875,0 -4.09375,16.0625 c -0.91089,3.12507 -1.82984,3.59375 -4.5625,3.59375 l -4.5625,0 -1.8125,-0.0312 0.90625,-3.5625 0.90625,0 c 0.45544,-0.006 0.91955,0.005 1.375,-1.78125 l 3.65625,-14.28125 z m 10.25,0.21875 5.90625,0 -1.375,5.375 -5.90625,0 1.375,-5.375 z m -2.0625,8.71875 5.90625,0 -1.34375,5.34375 -5.9375,0 1.375,-5.34375 z"
           style="color:#000000;fill:#ffcc00;fill-opacity:1;fill-rule:nonzero;stroke:none;stroke-width:2;marker:none;visibility:visible;display:inline;overflow:visible;filter:url(#filter4661);enable-background:accumulate"
           clip-path="url(#clipPath4697)"
           inkscape:connector-curvature="0"
           transform="translate(60,-4.0128174)" />
        <path
           sodipodi:nodetypes="ccccccsccccsccccccccccccc"
           inkscape:connector-curvature="0"
           id="path3124"
           d="m 276.69802,299.86218 -1.13862,4.46438 8.19803,0 1.1386,-4.46438 z m -1.36634,5.35725 -3.64357,14.28601 c -0.45545,1.78576 -0.91089,1.77431 -1.36633,1.78003 l -0.91089,0 -0.91089,3.5715 1.82178,0.005 4.55446,0 c 2.73266,0 3.64356,-0.44643 4.55445,-3.5715 l 4.09902,-16.07176 z m 10.24752,0.22323 -1.36632,5.35725 5.92079,0 1.36633,-5.35725 z m -2.04949,8.70553 -1.36634,5.35725 5.92079,0 1.36634,-5.35725 z"
           style="fill:#ff0000;stroke:#000000;stroke-width:0.99999994px;stroke-linecap:butt;stroke-linejoin:miter;stroke-opacity:1" />
        <rect
           style="opacity:0.5;color:#000000;fill:none;stroke:#000000;stroke-width:2;marker:none;visibility:visible;display:inline;overflow:visible;enable-background:accumulate"
           id="rect3126"
           width="32"
           height="32"
           x="264"
           y="296.36218"
           rx="6"
           ry="6"
           clip-path="url(#clipPath4709)" />
      </g>
      <text
         inkscape:export-ydpi="180"
         inkscape:export-xdpi="180"
         inkscape:export-filename="C:\home\dev\java\w.plugins\eclipse-jetty-code\src\site\resources\images\title.png"
         sodipodi:linespacing="125%"
         id="text3128"
         y="445.59656"
         x="300.77344"
         style="font-size:40px;font-style:normal;font-variant:normal;font-weight:normal;font-stretch:normal;line-height:125%;letter-spacing:0px;word-spacing:0px;fill:#333333;fill-opacity:1;stroke:none;font-family:Deutsche Zierschrift;-inkscape-font-specification:Deutsche Zierschrift"
         xml:space="preserve"><tspan
           style="font-size:24px;font-style:normal;font-variant:normal;font-weight:bold;font-stretch:normal;fill:#333333;font-family:Verdana;-inkscape-font-specification:Verdana Bold"
           y="445.59656"
           x="300.77344"
           id="tspan3130"
           sodipodi:role="line">Eclipse Jetty Integration</tspan></text>
    </g>
  </g>
</svg>
